# xmcd CD database file
#
# Track frame offsets:
#	150
#	13370
#	36287
#	50719
#	68048
#	82143
#	94069
#	108009
#	121554
#	131687
#
# Disc length: 1947 seconds
#
# Revision: 2
# Processed by: cddbd v1.5.2PL0 Copyright (c) Steve Scherf et al.
# Submitted via: CDex 1.70beta2
#
DISCID=8307990a
DTITLE=Various Artist - Magiczny swiat jazzu Tom1 - Big Bandy... i powstaly zespoly jazzowe CD1
DYEAR=2009
DGENRE=Jazz
TTITLE0=IN THE MOOD - Glenn Miller and his Orchestra
TTITLE1=STOMPIN' AT THE SAVOY - Duke Ellington and his Orchestra
TTITLE2=DISC JOCKEY JUMP - Gene Krupa and his Orchestra
TTITLE3=ANVIL CHORUS - Glenn Miller and his Orchestra
TTITLE4=BROWN BETTY - Duke Ellington and his Orchestra
TTITLE5=GRANADA - Tommy Dorsey and his Orchestra
TTITLE6=FRENESI - Artie Shaw and his Orchestra
TTITLE7=DARK EYES - Charlie Ventura and his Orchestra
TTITLE8=JEEP JOCKEY - Glenn Miller and his Orchestra
TTITLE9=GREAT TIMES - Duke Ellington and his Orchestra
EXTD=YEAR: 2009
EXTT0=
EXTT1=
EXTT2=
EXTT3=
EXTT4=
EXTT5=
EXTT6=
EXTT7=
EXTT8=
EXTT9=
PLAYORDER=
